# Blender v2.90.1 OBJ File: 'scifi-gun.blend'
# www.blender.org
mtllib scifi-gun.mtl
o Cube_Cube.003
v -0.495722 0.761630 -0.801686
v -0.495722 0.865345 -0.801686
v -0.495722 0.761630 -0.905400
v -0.495722 0.865345 -0.905400
v -0.557302 0.621644 -0.905400
v -0.576842 0.630737 -0.801686
v -0.490783 0.638953 -0.905400
v -0.472139 0.630277 -0.801686
v -0.519970 0.522445 -0.905400
v -0.519970 0.522445 -0.801686
v -0.416255 0.522445 -0.905400
v -0.416255 0.522445 -0.801686
v -0.576842 0.630737 -0.801686
v -0.472139 0.630277 -0.801686
v -0.519970 0.522445 -0.801686
v -0.416255 0.522445 -0.801686
v -0.599436 0.865345 -0.905400
v -0.599436 0.761630 -0.905400
v -0.599436 0.865345 -0.801686
v -0.599436 0.761630 -0.801686
v -0.599436 0.761630 -0.905400
v -0.599436 0.865345 -0.905400
v -0.495722 0.761630 -0.905400
v -0.495722 0.865345 -0.905400
vt 0.378105 0.569966
vt 0.348516 0.668098
vt 0.346847 0.664683
vt 0.376068 0.570893
vt 0.808254 0.714894
vt 0.946783 0.714894
vt 0.946783 0.576365
vt 0.808254 0.576365
vt 0.808254 0.715118
vt 0.946783 0.715118
vt 0.946783 0.853647
vt 0.808254 0.853647
vt 0.495201 0.854913
vt 0.494922 0.999888
vt 0.349948 0.999610
vt 0.350226 0.854635
vt 0.808254 0.576141
vt 0.808254 0.437612
vt 0.946783 0.437612
vt 0.946783 0.576141
vt 0.068285 0.696480
vt 0.000112 0.572483
vt 0.173982 0.474756
vt 0.227090 0.609169
vt 0.315231 0.249104
vt 0.431967 0.260112
vt 0.483572 0.490335
vt 0.317285 0.429903
vt 0.495530 0.683292
vt 0.246630 0.806711
vt 0.126609 0.747811
vt 0.329243 0.000112
vt 0.495530 0.060543
vt 0.305565 0.540213
vt 0.306466 0.542355
vt 0.231082 0.608138
vn 0.0000 0.0000 1.0000
vn -1.0000 0.0000 0.0000
vn 1.0000 0.0000 0.0000
vn -0.9694 -0.2316 -0.0812
vn -0.0000 0.0000 -1.0000
vn 0.9902 0.1112 -0.0843
vn 0.0000 -1.0000 0.0000
vn 0.8632 0.5018 -0.0566
vn -0.9085 -0.4125 -0.0675
usemtl None
s off
f 12/1/1 8/2/1 14/3/1 16/4/1
f 21/5/1 23/6/1 24/7/1 22/8/1
f 20/9/2 19/10/2 17/11/2 18/12/2
f 3/13/3 4/14/3 2/15/3 1/16/3
f 1/17/1 2/18/1 19/19/1 20/20/1
f 20/21/4 18/22/4 5/23/4 6/24/4
f 5/25/5 7/26/5 11/27/5 9/28/5
f 3/13/6 1/16/6 8/2/6 7/29/6
f 1/30/1 20/31/1 6/24/1 8/2/1
f 18/32/5 3/33/5 7/26/5 5/25/5
f 9/28/7 11/27/7 12/1/7 10/34/7
f 7/29/8 8/2/8 12/1/8 11/27/8
f 6/24/9 5/23/9 9/28/9 10/34/9
f 6/24/1 10/34/1 15/35/1 13/36/1
f 14/3/1 13/36/1 15/35/1 16/4/1
f 10/34/1 12/1/1 16/4/1 15/35/1
f 8/2/1 6/24/1 13/36/1 14/3/1
o Cube.001_Cube.002
v -0.969149 1.078032 -0.682385
v -1.352025 -0.061727 -1.089589
v -0.963845 1.076529 -1.088958
v -0.953126 -0.188915 -0.682387
v -0.707174 0.833721 -0.682663
v -0.712449 0.834601 -1.089752
v -1.353958 -0.061315 -0.684773
v -1.069232 -0.731582 -1.089702
v -1.069232 -0.731582 -0.682256
v -0.952866 -0.188958 -1.089850
v -0.659146 -0.662608 -1.089702
v -0.659146 -0.662608 -0.682256
v -0.211398 -0.174541 -1.086617
v -0.221644 -0.167517 -0.682256
v 0.009204 -0.488762 -1.078586
v -0.001601 -0.456071 -0.682256
v 1.727048 -0.153763 -0.643198
v 1.759385 -0.225378 -1.074002
v 1.952910 -0.414764 -0.682256
v 2.962699 -0.329060 -1.117823
v 2.822191 -0.436107 -1.082323
v 2.815758 -0.429794 -0.680463
v 2.465239 0.076858 -0.851547
v -0.612716 1.531048 -0.740658
v -0.557771 1.560446 -1.103083
v 0.447153 1.548312 -1.090281
v 0.444764 1.548711 -0.682674
v 0.259686 0.837611 -0.682606
v -0.796537 1.249074 -0.683388
v -0.743254 1.306322 -1.110930
v 0.322314 0.893301 -1.110779
v -1.217396 1.350353 -0.680618
v -1.234814 1.353100 -1.088816
v -1.146496 1.519222 -1.032159
v -1.115054 1.513978 -0.626839
v -0.933735 1.380915 -1.094343
v -0.941979 1.377253 -0.680125
v -1.089933 1.213518 -0.683169
v -1.097180 1.214726 -1.090125
v -0.689944 1.944298 -0.657803
v -0.670879 1.941629 -1.069723
v -0.553365 1.837134 -1.090774
v -0.545662 1.836149 -0.682136
v -0.815330 1.856614 -0.999120
v -0.670127 1.698234 -0.695280
v -0.798839 1.853863 -0.592789
v -0.758890 1.586529 -1.091133
v -0.757020 1.586109 -0.683340
v -0.889395 1.714380 -0.621167
v -0.951987 1.720824 -1.011554
v -0.670606 1.696000 -1.085900
v 0.900560 1.705492 -1.089839
v 0.899455 1.705676 -0.682319
v 0.811370 1.600702 -1.089881
v 0.812021 1.600593 -0.682479
v -0.753510 0.643381 -1.090021
v 0.850668 1.940597 -1.089787
v 0.977772 1.843817 -0.682281
v 1.043136 1.838799 -1.089701
v 0.444203 0.643984 -0.547150
v 0.441396 0.644452 -0.954406
v 0.850026 1.940704 -0.682297
v 0.977824 1.843808 -1.089730
v 0.962763 1.914701 -0.682276
v 0.962881 1.914682 -1.089730
v 1.043136 1.838799 -0.682256
v 3.041957 1.846931 -0.682256
v 2.999906 1.908653 -0.682256
v 3.041957 1.846931 -1.089701
v 2.999906 1.908653 -1.089701
v 0.536347 1.244482 -1.093442
v 0.572707 1.156481 -0.575067
v 3.036018 1.243904 -0.682256
v 2.781915 0.972541 -1.191746
v 0.524850 0.694662 -1.089770
v 0.523191 0.690086 -0.682366
v 2.774335 0.687871 -0.682256
v 2.774335 0.687871 -1.089702
v 0.943350 0.135184 -0.682256
v 0.882986 0.109617 -1.139437
v 2.763797 0.139916 -0.682256
v 2.763797 0.139916 -1.089702
v 2.109924 1.158012 -0.593845
v 1.908779 0.690744 -0.722735
v 2.058189 0.148895 -0.682256
v 1.173047 -0.151429 -0.682256
v 1.712463 -0.124845 -0.651036
v 2.003056 0.140120 -1.105380
v 0.910441 0.116113 -1.101747
v 1.734087 -0.169662 -1.071764
v 1.173047 -0.151429 -1.076840
v 0.232698 1.160970 -0.739087
v 0.261277 1.196985 -1.101927
v 1.552513 0.988111 -1.181632
v 1.574583 0.680799 -1.157506
v -1.014243 0.841141 -1.082185
v -1.096217 0.698717 -1.081924
v -1.167904 0.512306 -1.064707
v -1.202281 0.266936 -1.111038
v -1.283248 0.108809 -1.087535
v -0.748166 0.663282 -0.682617
v -0.789158 0.492842 -0.682571
v -0.830150 0.322403 -0.682525
v -0.871142 0.151964 -0.682479
v -0.912134 -0.018476 -0.682433
v -1.263717 0.095311 -0.734431
v -1.218863 0.309769 -0.697065
v -1.162406 0.508748 -0.681459
v -1.083756 0.652380 -0.674386
v -1.034929 0.885736 -0.676481
v -0.752518 0.664007 -1.089768
v -0.792588 0.493414 -1.089785
v -0.832657 0.322821 -1.089801
v -0.872727 0.152228 -1.089818
v -0.912796 -0.018365 -1.089834
v 2.950151 -0.297482 -0.643333
vt 0.489456 0.146782
vt 0.570042 0.207565
vt 0.571857 0.037585
vt 0.489815 0.038896
vt 0.073705 0.283870
vt 0.060152 0.252221
vt 0.111636 0.260536
vt 0.121044 0.283755
vt 0.277513 0.257615
vt 0.282829 0.296894
vt 0.255328 0.301402
vt 0.244311 0.259860
vt 0.408021 0.072950
vt 0.439348 0.000000
vt 0.484280 0.040848
vt 0.484280 0.821891
vt 0.547397 0.824438
vt 0.551395 0.867998
vt 0.487994 0.875594
vt 0.168081 0.399852
vt 0.199375 0.472822
vt 0.107973 0.416796
vt 0.454098 0.533836
vt 0.464998 0.534158
vt 0.464998 0.591976
vt 0.454144 0.591661
vt 0.945498 0.830239
vt 0.945498 0.891371
vt 0.900624 0.892629
vt 0.900732 0.840917
vt 0.244311 0.850634
vt 0.381218 0.450290
vt 0.308987 0.854575
vt 0.922651 0.517495
vt 0.898379 0.422428
vt 0.853069 0.450823
vt 0.848944 0.554588
vt 0.313339 0.578136
vt 0.252792 0.576165
vt 0.567790 0.553538
vt 0.567179 0.356778
vt 0.484280 0.416593
vt 0.486829 0.574777
vt 0.488517 0.718422
vt 0.551395 0.713763
vt 0.548345 0.745806
vt 0.489267 0.745502
vt 0.911774 0.145319
vt 0.870410 0.174944
vt 0.061006 0.472986
vt 0.000000 0.472822
vt 0.000001 0.759453
vt 0.061006 0.759601
vt 0.820109 0.133395
vt 0.771049 0.105111
vt 0.797769 0.383648
vt 0.997895 0.234737
vt 0.997929 0.243839
vt 0.936924 0.243839
vt 0.936889 0.234730
vt 0.825120 0.553224
vt 0.839619 0.532206
vt 0.998651 0.525335
vt 0.937646 0.525335
vt 0.117164 0.565690
vt 0.064203 0.566753
vt 0.063653 0.540737
vt 0.124223 0.539999
vt 0.065723 0.473494
vt 0.126697 0.472822
vt 0.234836 0.171012
vt 0.068202 0.207636
vt 0.069717 0.163003
vt 0.201668 0.140249
vt 0.638174 0.581421
vt 0.567848 0.676202
vt 0.651219 0.713135
vt 0.195028 0.084178
vt 0.352345 0.212591
vt 0.306319 0.254190
vt 0.299358 0.220333
vt 0.038271 0.214095
vt 0.000000 0.214863
vt 0.006994 0.175674
vt 0.042577 0.176004
vt 0.284200 0.316986
vt 0.287920 0.343116
vt 0.260836 0.344294
vt 0.254642 0.325016
vt 0.245703 0.232460
vt 0.273009 0.226584
vt 0.137240 0.678806
vt 0.130118 0.651283
vt 0.190851 0.654650
vt 0.198352 0.681616
vt 0.225491 0.685658
vt 0.209191 0.685882
vt 0.208854 0.627915
vt 0.226628 0.627911
vt 0.456456 0.472817
vt 0.479077 0.475052
vt 0.480909 0.533836
vt 0.454098 0.533836
vt 0.032021 0.246651
vt 0.003331 0.241403
vt 0.044258 0.156108
vt 0.012409 0.148828
vt 0.023462 0.127307
vt 0.046904 0.130183
vt 0.126697 0.587932
vt 0.136807 0.569879
vt 0.198352 0.571081
vt 0.187528 0.590673
vt 0.997130 0.000000
vt 0.997500 0.019090
vt 0.936322 0.020157
vt 0.938638 0.000108
vt 0.235683 0.048945
vt 0.130163 0.611516
vt 0.188744 0.616631
vt 0.654186 0.355317
vt 0.615961 0.210709
vt 0.571877 0.356778
vt 0.453168 0.502283
vt 0.454098 0.723565
vt 0.393101 0.723797
vt 0.392114 0.502681
vt 0.240807 0.685882
vt 0.243753 0.628238
vt 0.376037 0.811587
vt 0.315054 0.810880
vt 0.314853 0.791682
vt 0.375850 0.792312
vt 0.136825 0.472822
vt 0.197769 0.474845
vt 0.392084 0.472817
vt 0.475743 0.423919
vt 0.477712 0.443233
vt 0.618197 0.765857
vt 0.672523 0.760841
vt 0.683021 0.830494
vt 0.622082 0.828124
vt 0.475771 0.465698
vt 0.451806 0.466863
vt 0.942328 0.612288
vt 0.907825 0.612288
vt 0.903431 0.554588
vt 0.943042 0.560674
vt 0.394629 0.838675
vt 0.452946 0.842533
vt 0.452946 0.741694
vt 0.392084 0.738042
vt 0.200697 0.778737
vt 0.204775 0.681616
vt 0.136605 0.683398
vt 0.139713 0.780292
vt 0.467945 0.472817
vt 0.235808 0.007124
vt 0.227990 0.000000
vt 0.244311 0.002496
vt 0.376976 0.713615
vt 0.315984 0.712963
vt 0.314853 0.473515
vt 0.253850 0.472817
vt 0.739407 0.430146
vt 0.741513 0.713763
vt 0.750736 0.707774
vt 0.330358 0.707779
vt 0.330057 0.712963
vt 0.391034 0.712507
vt 0.391334 0.707323
vt 0.126697 0.837185
vt 0.204775 0.848076
vt 0.743402 0.283620
vt 0.061006 0.709924
vt 0.061571 0.774441
vt 0.120456 0.781075
vt 0.121887 0.713190
vt 0.637310 0.363228
vt 0.839619 0.830280
vt 0.900624 0.830239
vt 0.900624 0.889226
vt 0.839619 0.889267
vt 0.471648 0.290274
vt 0.441373 0.326034
vt 0.305615 0.301932
vt 0.398741 0.096224
vt 0.345927 0.081468
vt 0.347693 0.055906
vt 0.454098 0.473900
vt 0.392084 0.472817
vt 0.392083 0.630320
vt 0.314853 0.580336
vt 0.485798 0.674901
vt 0.391430 0.543113
vt 0.330453 0.543569
vt 0.243753 0.472822
vt 0.198352 0.588645
vt 0.202909 0.509132
vt 0.331107 0.473273
vt 0.686113 0.763434
vt 0.726351 0.871967
vt 0.683021 0.839901
vt 0.453863 0.738042
vt 0.392846 0.738031
vt 0.839619 0.037182
vt 0.766002 0.000000
vt 0.211923 0.005920
vt 0.757937 0.833687
vt 0.818871 0.835111
vt 0.818871 0.762155
vt 0.754727 0.771931
vt 1.000000 0.161607
vt 0.922651 0.165111
vt 0.614141 0.036219
vt 0.484280 0.305575
vt 0.244311 0.431980
vt 0.434672 0.388497
vt 0.237895 0.029526
vt 0.484280 0.470330
vt 0.750736 0.418714
vt 0.754727 0.295034
vt 0.754727 0.005988
vt 0.745505 0.000000
vt 0.243753 0.627911
vt 0.726351 0.713763
vt 0.683021 0.713763
vt 0.618731 0.721812
vt 0.485390 0.301824
vt 0.307380 0.192518
vt 0.361625 0.189317
vt 0.320977 0.161237
vt 0.370904 0.166044
vt 0.323377 0.138098
vt 0.380183 0.142770
vt 0.333226 0.110233
vt 0.389462 0.119497
vt 0.376976 0.907961
vt 0.316059 0.906870
vt 0.315858 0.887672
vt 0.376789 0.888686
vt 0.315657 0.868474
vt 0.376601 0.869412
vt 0.315456 0.849276
vt 0.376413 0.850137
vt 0.315255 0.830078
vt 0.376225 0.830862
vt 0.125792 0.709109
vt 0.064979 0.709924
vt 0.065902 0.676814
vt 0.126466 0.680504
vt 0.065603 0.653532
vt 0.126697 0.647759
vt 0.067934 0.625283
vt 0.125320 0.624546
vt 0.061006 0.592005
vt 0.122832 0.595717
vt 0.102113 0.391291
vt 0.158673 0.376632
vt 0.098928 0.366266
vt 0.149266 0.353413
vt 0.082298 0.334732
vt 0.139858 0.330194
vt 0.075554 0.307130
vt 0.130451 0.306975
vt 0.867489 0.760896
vt 0.840313 0.768528
vt 0.618197 0.830494
vt 0.619469 0.887529
vt 0.121887 0.910293
vn 0.0426 -0.0314 -0.9986
vn -0.0253 -0.0110 -0.9996
vn 0.1916 -0.1980 0.9613
vn -0.0000 0.0003 1.0000
vn 0.6894 -0.7242 0.0186
vn -0.0007 -0.0001 -1.0000
vn 0.2249 0.9744 0.0001
vn 0.9805 0.1475 0.1302
vn -0.3391 0.9236 -0.1790
vn -0.0001 0.0001 1.0000
vn 0.0106 0.9956 -0.0932
vn 0.0159 0.0452 0.9989
vn -0.7478 -0.6623 0.0457
vn 0.0031 -0.1454 0.9894
vn 0.0030 1.0000 -0.0000
vn 0.0058 -0.0214 -0.9998
vn -0.0765 -0.9971 0.0000
vn -0.0565 -0.2467 -0.9674
vn 0.0041 -1.0000 0.0000
vn -0.8974 0.4403 0.0284
vn 0.0186 0.5642 -0.8254
vn -0.9208 -0.3900 -0.0020
vn 0.0119 0.0273 -0.9996
vn 0.0329 -0.1396 0.9897
vn 0.0131 0.0262 -0.9996
vn -0.0177 -0.0460 -0.9988
vn 0.0034 0.0025 1.0000
vn -0.1844 0.2232 -0.9572
vn 0.3232 -0.1170 0.9391
vn 0.0161 -0.1829 0.9830
vn 0.2911 -0.2654 0.9191
vn 0.0017 -0.0077 1.0000
vn -0.8725 0.4853 0.0572
vn -0.7200 -0.6938 0.0184
vn 0.5185 0.8493 0.0994
vn -0.0555 -0.0122 -0.9984
vn -0.0348 0.1815 -0.9828
vn -0.3255 0.0618 -0.9435
vn -0.5700 0.8217 -0.0017
vn 0.7560 -0.6546 -0.0067
vn 0.0004 0.0474 -0.9989
vn -0.7746 0.6269 0.0841
vn -0.0795 -0.0333 -0.9963
vn 0.0091 -1.0000 -0.0007
vn -0.7328 -0.6804 0.0020
vn -0.2233 0.2722 -0.9360
vn 0.9729 -0.2313 -0.0005
vn 0.0015 1.0000 -0.0034
vn -0.0064 -0.9999 0.0110
vn -0.0083 0.0054 1.0000
vn -0.0040 0.9993 0.0373
vn 0.0081 -0.1071 0.9942
vn 0.8799 -0.4750 0.0134
vn 0.0054 -1.0000 0.0030
vn -0.8225 -0.5646 0.0696
vn -0.0002 -0.0001 1.0000
vn 0.0004 0.0001 -1.0000
vn -0.8498 -0.5272 -0.0002
vn -0.0243 0.9997 -0.0090
vn 0.0000 0.0000 1.0000
vn 0.8264 0.5630 0.0000
vn 0.0058 -0.9985 0.0550
vn -0.9975 0.0555 0.0429
vn -0.0698 0.0658 -0.9954
vn 0.2752 -0.9604 0.0428
vn 0.0951 -0.0009 0.9955
vn 0.0198 -0.2502 0.9680
vn 0.1659 -0.9861 0.0000
vn 0.0676 0.1673 0.9836
vn -0.0206 0.1583 0.9872
vn 0.7551 -0.6555 0.0026
vn 0.9626 -0.1581 -0.2200
vn -0.0255 0.0339 0.9991
vn 0.9334 -0.3189 -0.1643
vn 0.0062 -0.0867 -0.9962
vn 0.9998 -0.0192 0.0000
vn -0.0019 0.0299 -0.9995
vn -0.0555 -0.0445 0.9975
vn 0.7651 -0.6439 0.0005
vn 0.0106 -0.0034 -0.9999
vn -0.0064 0.0961 -0.9954
vn -0.6914 0.7166 0.0922
vn 0.0305 -0.9974 -0.0655
vn 0.0047 -1.0000 -0.0012
vn -0.7874 0.6100 0.0889
vn 0.0225 -0.2079 -0.9779
vn -0.0637 0.0456 -0.9969
vn -0.0055 0.0014 1.0000
vn 0.0000 -0.0003 -1.0000
vn -0.0199 -0.0152 0.9997
vn -0.0525 -0.1156 0.9919
vn -0.0494 -0.0480 -0.9976
vn -0.0001 0.0017 1.0000
vn -0.0025 0.0025 -1.0000
vn -0.0015 0.1071 0.9943
vn -0.0004 -0.0001 1.0000
vn 0.0005 0.0001 -1.0000
vn 0.0000 -0.0004 -1.0000
vn 0.0000 0.0000 -1.0000
vn -0.0067 0.1179 -0.9930
vn -0.0004 0.1072 -0.9942
vn 0.0119 0.1471 0.9890
vn -0.0005 0.1280 0.9918
vn -0.0010 -0.1071 -0.9943
vn -0.0014 0.1151 0.9934
vn -0.8246 0.5633 -0.0512
vn 0.0338 -0.1376 -0.9899
vn 0.0205 0.0104 0.9997
vn 0.0245 -0.0002 0.9997
vn 0.0020 -0.0231 0.9997
vn -0.0363 -0.0325 0.9988
vn -0.1211 -0.0690 0.9902
vn 0.9728 -0.2312 -0.0120
vn 0.9728 -0.2312 -0.0097
vn 0.9729 -0.2312 -0.0074
vn 0.9729 -0.2312 -0.0051
vn 0.9729 -0.2313 -0.0028
vn -0.9644 0.2606 -0.0456
vn -0.9444 0.3287 -0.0088
vn -0.9085 0.4153 0.0468
vn -0.9788 0.2034 -0.0236
vn -0.9473 0.3202 -0.0086
vn -0.0012 0.0064 -1.0000
vn 0.0021 -0.0720 -0.9974
vn 0.0415 0.1033 -0.9938
vn -0.0680 -0.0268 -0.9973
vn -0.0220 0.0078 -0.9997
vn -0.0066 -0.2640 0.9645
vn 0.0140 -0.9969 0.0780
vn 0.0345 0.2930 0.9555
vn 0.6558 -0.7535 0.0468
vn 0.6203 0.7836 -0.0357
usemtl None
s off
f 112/37/10 119/38/10 102/39/10 106/40/10
f 120/41/11 27/42/11 30/43/11 135/44/11
f 61/45/12 72/46/12 73/47/12 59/48/12
f 28/49/13 33/50/13 36/51/13
f 111/52/14 114/53/14 112/54/14 109/55/14
f 34/56/15 32/57/15 26/58/15
f 86/59/16 88/60/16 89/61/16 81/62/16
f 52/63/17 55/64/17 117/65/17 116/66/17
f 41/67/18 47/68/18 42/69/18
f 36/70/19 40/71/19 38/72/19 28/73/19
f 37/74/20 38/75/20 41/67/20 42/69/20
f 108/76/21 100/77/21 103/78/21 109/79/21
f 103/80/22 113/81/22 115/82/22 110/83/22
f 40/71/23 43/84/23 41/85/23
f 89/86/24 88/87/24 92/88/24 94/89/24
f 39/90/25 37/91/25 42/92/25
f 87/93/26 83/94/26 90/95/26 82/96/26
f 42/92/27 44/97/27 45/98/27
f 83/94/28 93/99/28 91/100/28 90/95/28
f 130/101/29 124/102/29 26/103/29 31/104/29
f 44/97/30 42/92/30 47/68/30
f 26/103/31 32/105/31 33/106/31 31/104/31
f 55/107/32 54/108/32 49/109/32 117/110/32
f 107/111/33 108/76/33 101/112/33 97/113/33
f 117/110/34 49/109/34 50/114/34
f 30/43/35 54/108/35 55/107/35
f 29/115/36 53/116/36 25/117/36
f 60/118/37 58/119/37 74/120/37 71/121/37
f 69/122/38 67/123/38 64/124/38 70/125/38
f 61/45/39 59/48/39 56/126/39 62/127/39
f 72/46/40 69/122/40 70/125/40 73/47/40
f 53/116/41 61/45/41 62/127/41 25/117/41
f 56/128/42 59/129/42 58/130/42 57/131/42
f 62/132/43 56/133/43 57/134/43 63/135/43
f 54/136/44 60/137/44 61/138/44 53/139/44
f 54/108/45 27/42/45 63/140/45 60/118/45
f 60/118/46 63/140/46 57/141/46 58/119/46
f 75/142/47 68/143/47 65/144/47 66/145/47
f 70/146/48 64/147/48 65/148/48 68/149/48
f 75/150/49 66/151/49 67/152/49 69/153/49
f 75/142/50 78/154/50 71/121/50
f 73/155/51 70/146/51 68/149/51 74/156/51
f 95/157/52 118/158/52 119/38/52 99/159/52
f 71/160/53 78/161/53 79/162/53 72/163/53
f 25/164/54 62/132/54 63/135/54 27/165/54
f 71/121/55 74/120/55 68/143/55 75/142/55
f 139/166/56 129/167/56 28/168/56 34/169/56
f 64/147/57 86/170/57 81/171/57 65/148/57
f 109/55/58 112/54/58 106/40/58 105/172/58
f 69/122/59 79/173/59 77/174/59
f 49/175/60 48/176/60 51/177/60 50/178/60
f 67/123/61 82/179/61 86/180/61 64/124/61
f 117/181/62 50/182/62 51/183/62 116/184/62
f 69/185/63 75/186/63 76/187/63 77/188/63
f 99/189/64 104/190/64 103/191/64 100/192/64
f 82/179/65 88/193/65 86/180/65
f 87/194/66 89/195/66 83/196/66
f 28/168/67 34/169/67 35/197/67 36/198/67
f 34/199/68 28/200/68 38/75/68 37/74/68
f 90/201/69 91/202/69 92/203/69
f 93/204/70 94/205/70 92/206/70 91/207/70
f 110/83/71 115/82/71 114/53/71 111/52/71
f 96/208/72 95/209/72 99/189/72 100/192/72
f 83/210/73 118/158/73 95/157/73
f 35/211/74 39/212/74 40/213/74 36/214/74
f 91/202/75 107/111/75 97/113/75
f 96/215/76 100/77/76 108/76/76 107/111/76
f 35/216/77 36/217/77 33/218/77 32/219/77
f 52/220/78 116/221/78 48/222/78 53/116/78
f 129/223/79 130/224/79 31/225/79 28/49/79
f 60/226/80 71/160/80 72/163/80 61/227/80
f 93/204/81 91/207/81 97/228/81 98/229/81
f 101/112/82 108/76/82 109/79/82 105/230/82
f 98/229/83 97/228/83 101/231/83 102/232/83
f 113/233/84 114/234/84 115/235/84
f 102/232/85 101/231/85 105/172/85 106/236/85
f 42/92/86 45/98/86 39/90/86
f 111/237/87 103/238/87 110/239/87
f 78/161/88 76/240/88 77/241/88 79/162/88
f 35/242/89 34/243/89 37/91/89 39/90/89
f 66/145/90 65/144/90 81/244/90 87/194/90
f 59/129/91 73/155/91 74/156/91 58/130/91
f 29/245/92 30/246/92 55/247/92 52/248/92
f 66/151/93 87/93/93 82/96/93 67/152/93
f 90/95/94 83/94/94 95/249/94 96/250/94
f 118/158/95 98/251/95 102/39/95 119/38/95
f 119/38/96 104/252/96 99/159/96
f 28/49/97 31/225/97 33/50/97
f 34/56/98 35/253/98 32/57/98
f 40/71/99 41/85/99 38/72/99
f 116/221/100 51/254/100 48/222/100
f 30/43/101 27/42/101 54/108/101
f 29/115/102 52/220/102 53/116/102
f 75/142/103 76/255/103 78/154/103
f 69/122/104 72/46/104 79/173/104
f 82/179/105 90/256/105 88/193/105
f 87/194/106 81/244/106 89/195/106
f 90/201/13 92/203/13 88/257/13
f 89/258/107 94/259/107 83/210/107
f 83/210/108 94/259/108 93/260/108
f 98/251/109 118/158/109 93/260/109
f 93/260/110 118/158/110 83/210/110
f 96/215/111 107/111/111 90/201/111
f 90/201/112 107/111/112 91/202/112
f 113/233/113 112/261/113 114/234/113
f 111/237/114 109/262/114 103/238/114
f 53/263/115 48/176/115 49/175/115 54/264/115
f 113/265/116 104/252/116 119/38/116 112/37/116
f 29/115/117 25/117/117 134/266/117 125/267/117
f 125/267/118 134/266/118 133/268/118 126/269/118
f 126/269/119 133/268/119 132/270/119 127/271/119
f 127/271/120 132/270/120 131/272/120 128/273/120
f 128/273/121 131/272/121 130/224/121 129/223/121
f 30/274/122 29/275/122 125/276/122 135/277/122
f 135/277/123 125/276/123 126/278/123 136/279/123
f 136/279/124 126/278/124 127/280/124 137/281/124
f 137/281/125 127/280/125 128/282/125 138/283/125
f 138/283/126 128/282/126 129/167/126 139/166/126
f 25/284/127 27/285/127 120/286/127 134/287/127
f 134/287/128 120/286/128 121/288/128 133/289/128
f 133/289/129 121/288/129 122/290/129 132/291/129
f 132/291/130 122/290/130 123/292/130 131/293/130
f 131/293/131 123/292/131 124/102/131 130/101/131
f 26/58/132 124/294/132 139/295/132 34/56/132
f 124/294/133 123/296/133 138/297/133 139/295/133
f 123/296/134 122/298/134 137/299/134 138/297/134
f 122/298/135 121/300/135 136/301/135 137/299/135
f 121/300/136 120/41/136 135/44/136 136/301/136
f 140/302/137 43/84/137 46/303/137
f 39/212/138 45/304/138 46/305/138 43/306/138 40/213/138
f 47/68/139 41/85/139 43/84/139 140/302/139
f 46/303/140 45/98/140 44/97/140 140/302/140
f 47/68/141 140/302/141 44/97/141
l 30 80
